{"title":"Blade.Runner.(1992).REMASTERED.DIRECTORS.CUT.DVDRip.272p.H264.AA","uid":7011285,"size":339947607,"categoryP":"video","categoryS":"movies","magnet":"?xt=urn:btih:79fcd649ed4116df76eff2fcb4fd9e0e625e7963&amp;dn=Blade.Runner.%281992%29.REMASTERED.DIRECTORS.CUT.DVDRip.272p.H264.AA&amp;tr=udp%3A%2F%2Ftracker.openbittorrent.com%3A80&amp;tr=udp%3A%2F%2Fopen.demonii.com%3A1337&amp;tr=udp%3A%2F%2Ftracker.coppersurfer.tk%3A6969&amp;tr=udp%3A%2F%2Fexodus.desync.com%3A6969","seeders":1,"leechers":0,"uploader":"k3nd00d","files":-1,"time":1328477862,"description":"\nxxxxxxxxxxxxxxxxxxxxxxxxxxxxxxxxxxxxxxxxxxxxxxxxxxxxxxxxxxxxxxxxxxxxxxxxxxxxxxxx\n\nBlade Runner\n1992 Remastered Director's Cut\n\nDirector: Ridley Scott\n\nxxxxxxxxxxxxxxxxxxxxxxxxxxxxxxxxxxxxxxxxxxxxxxxxxxxxxxxxxxxxxxxxxxxxxxxxxxxxxxxx\n &lt;a href=&quot;\nhttp://www.imdb.com/title/tt0083658/&quot; rel=&quot;nofollow&quot; target=&quot;_NEW&quot;&gt;\nhttp://www.imdb.com/title/tt0083658/&lt;/a&gt;\n &lt;a href=&quot;\nhttp://www.imdb.com/title/tt0083658/alternateversions&quot; rel=&quot;nofollow&quot; target=&quot;_NEW&quot;&gt;\nhttp://www.imdb.com/title/tt0083658/alternateversions&lt;/a&gt;\n &lt;a href=&quot;\nhttp://en.wikipedia.org/wiki/Blade_Runner&quot; rel=&quot;nofollow&quot; target=&quot;_NEW&quot;&gt;\nhttp://en.wikipedia.org/wiki/Blade_Runner&lt;/a&gt;\n &lt;a href=&quot;\nhttp://en.wikipedia.org/wiki/Versions_of_Blade_Runner&quot; rel=&quot;nofollow&quot; target=&quot;_NEW&quot;&gt;\nhttp://en.wikipedia.org/wiki/Versions_of_Blade_Runner&lt;/a&gt;\n\nxxxxxxxxxxxxxxxxxxxxxxxxxxxxxxxxxxxxxxxxxxxxxxxxxxxxxxxxxxxxxxxxxxxxxxxxxxxxxxxx\n\nMAN HAS MADE HIS MATCH ...NOW IT'S HIS PROBLEM.\n\nxxxxxxxxxxxxxxxxxxxxxxxxxxxxxxxxxxxxxxxxxxxxxxxxxxxxxxxxxxxxxxxxxxxxxxxxxxxxxxxx\n\nHarrison Ford\t ...\tRick Deckard\nRutger Hauer\t ...\tRoy Batty\nSean Young\t ...\tRachael\nEdward James Olmos\t ...\tGaff\nM. Emmet Walsh\t ...\tBryant\nDaryl Hannah\t ...\tPris\nWilliam Sanderson\t ...\tJ.F. Sebastian\nBrion James\t ...\tLeon Kowalski\nJoe Turkel\t ...\tDr. Eldon Tyrell\nJoanna Cassidy\t ...\tZhora\nJames Hong\t ...\tHannibal Chew\nMorgan Paull\t ...\tHolden\n\nxxxxxxxxxxxxxxxxxxxxxxxxxxxxxxxxxxxxxxxxxxxxxxxxxxxxxxxxxxxxxxxxxxxxxxxxxxxxxxxx\n\nOther 272p movies: &lt;a href=&quot;\nhttp://thepiratebay.com/tag/FaCTFiCTioN&quot; rel=&quot;nofollow&quot; target=&quot;_NEW&quot;&gt;\nhttp://thepiratebay.com/tag/FaCTFiCTioN&lt;/a&gt;\n\nOther versions of Blade Runner in 272p: &lt;a href=&quot;\nhttp://thepiratebay.com/tag/Blade+Runner+272p&quot; rel=&quot;nofollow&quot; target=&quot;_NEW&quot;&gt;\nhttp://thepiratebay.com/tag/Blade+Runner+272p&lt;/a&gt;\n\nxxxxxxxxxxxxxxxxxxxxxxxxxxxxxxxxxxxxxxxxxxxxxxxxxxxxxxxxxxxxxxxxxxxxxxxxxxxxxxxx\n\nGeneral\nFormat                           : MPEG-4\nFormat profile                   : Base Media / Version 2\nCodec ID                         : mp42\nFile size                        : 324 MiB\nDuration                         : 1h 56mn\nOverall bit rate                 : 388 Kbps\n\nVideo\nID                               : 1\nFormat                           : AVC\nFormat/Info                      : Advanced Video Codec\nFormat profile                   : &lt;a class=&quot;__cf_email__&quot; href=&quot;/cdn-cgi/l/email-protection&quot; data-cfemail=&quot;cf8daebcaaa3a6a1aa8f83fee1fc&quot;&gt;[email&amp;#160;protected]&lt;/a&gt;&lt;script cf-hash='f9e31' type=&quot;text/javascript&quot;&gt;\n/* &lt;![CDATA[ */!function(){try{var t=&quot;currentScript&quot;in document?document.currentScript:function(){for(var t=document.getElementsByTagName(&quot;script&quot;),e=t.length;e--;)if(t[e].getAttribute(&quot;cf-hash&quot;))return t[e]}();if(t&amp;&amp;t.previousSibling){var e,r,n,i,c=t.previousSibling,a=c.getAttribute(&quot;data-cfemail&quot;);if(a){for(e=&quot;&quot;,r=parseInt(a.substr(0,2),16),n=2;a.length-n;n+=2)i=parseInt(a.substr(n,2),16)^r,e+=String.fromCharCode(i);e=document.createTextNode(e),c.parentNode.replaceChild(e,c)}}}catch(u){}}();/* ]]&gt; */&lt;/script&gt;\nFormat settings, CABAC           : No\nFormat settings, ReFrames        : 2 frames\nCodec ID                         : avc1\nCodec ID/Info                    : Advanced Video Coding\nDuration                         : 1h 56mn\nBit rate mode                    : Variable\nBit rate                         : 320 Kbps\nWidth                            : 480 pixels\nHeight                           : 208 pixels\nDisplay aspect ratio             : 2.35:1\nFrame rate mode                  : Variable\nFrame rate                       : 23.976 fps\nMinimum frame rate               : 9.282 fps\nMaximum frame rate               : 47.145 fps\nColor space                      : YUV\nChroma subsampling               : 4:2:0\nBit depth                        : 8 bits\nScan type                        : Progressive\nBits/(Pixel*Frame)               : 0.134\nStream size                      : 267 MiB (82%)\nWriting library                  : x264 core 79\n\nAudio\nID                               : 2\nFormat                           : AAC\nFormat/Info                      : Advanced Audio Codec\nFormat profile                   : LC\nCodec ID                         : 40\nDuration                         : 1h 56mn\nBit rate mode                    : Variable\nBit rate                         : 63.9 Kbps\nMaximum bit rate                 : 96.1 Kbps\nChannel(s)                       : 2 channels\nChannel positions                : Front: L R\nSampling rate                    : 44.1 KHz\nCompression mode                 : Lossy\nStream size                      : 53.3 MiB (16%)\nLanguage                         : English\n\nxxxxxxxxxxxxxxxxxxxxxxxxxxxxxxxxxxxxxxxxxxxxxxxxxxxxxxxxxxxxxxxxxxxxxxxxxxxxxxxx\n\nFaCTFiCTioN ... 1. A work of fiction based in fact.\n                2. A work of fiction which later becomes fact.\n\nxxxxxxxxxxxxxxxxxxxxxxxxxxxxxxxxxxxxxxxxxxxxxxxxxxxxxxxxxxxxxxxxxxxxxxxxxxxxxxxx\n\n272p = 272 lines of pixels in a 16:9 aspect ratio video with a 480 pixel width.\n\nA 480x208 pixel video with an aspect ratio of 2.35:1 or a 480x352 pixel video\nwith an aspect ratio of 4:3 are also considered 272p.\n\n272p m4v/mp4 format videos are easily played on PCs, Macs, smartphones, tablets,\ngame consoles, and portable multimedia players such as iPods, Zunes, PSPs, etc.\n","torrent":{"xt":"urn:btih:79fcd649ed4116df76eff2fcb4fd9e0e625e7963","amp;dn":"Blade.Runner.%281992%29.REMASTERED.DIRECTORS.CUT.DVDRip.272p.H264.AA","amp;tr":["udp%3A%2F%2Ftracker.openbittorrent.com%3A80","udp%3A%2F%2Fopen.demonii.com%3A1337","udp%3A%2F%2Ftracker.coppersurfer.tk%3A6969","udp%3A%2F%2Fexodus.desync.com%3A6969"],"infoHash":"79fcd649ed4116df76eff2fcb4fd9e0e625e7963","infoHashBuffer":{"type":"Buffer","data":[121,252,214,73,237,65,22,223,118,239,242,252,180,253,158,14,98,94,121,99]},"announce":[],"urlList":[]}}